<svg xmlns="http://www.w3.org/2000/svg" viewBox="0 0 856 168" role="img" aria-label="English Exam Coach">
<rect x="16" y="16" width="8" height="8" fill="#FDBA74"/>
<rect x="24" y="16" width="8" height="8" fill="#FDBA74"/>
<rect x="32" y="16" width="8" height="8" fill="#FDBA74"/>
<rect x="40" y="16" width="8" height="8" fill="#FDBA74"/>
<rect x="48" y="16" width="8" height="8" fill="#FDBA74"/>
<rect x="16" y="24" width="8" height="8" fill="#FDBA74"/>
<rect x="16" y="32" width="8" height="8" fill="#FDBA74"/>
<rect x="16" y="40" width="8" height="8" fill="#FDBA74"/>
<rect x="24" y="40" width="8" height="8" fill="#FDBA74"/>
<rect x="32" y="40" width="8" height="8" fill="#FDBA74"/>
<rect x="40" y="40" width="8" height="8" fill="#FDBA74"/>
<rect x="16" y="48" width="8" height="8" fill="#FDBA74"/>
<rect x="16" y="56" width="8" height="8" fill="#FDBA74"/>
<rect x="16" y="64" width="8" height="8" fill="#FDBA74"/>
<rect x="24" y="64" width="8" height="8" fill="#FDBA74"/>
<rect x="32" y="64" width="8" height="8" fill="#FDBA74"/>
<rect x="40" y="64" width="8" height="8" fill="#FDBA74"/>
<rect x="48" y="64" width="8" height="8" fill="#FDBA74"/>
<rect x="64" y="16" width="8" height="8" fill="#FCB167"/>
<rect x="96" y="16" width="8" height="8" fill="#FCB167"/>
<rect x="64" y="24" width="8" height="8" fill="#FCB167"/>
<rect x="72" y="24" width="8" height="8" fill="#FCB167"/>
<rect x="96" y="24" width="8" height="8" fill="#FCB167"/>
<rect x="64" y="32" width="8" height="8" fill="#FCB167"/>
<rect x="72" y="32" width="8" height="8" fill="#FCB167"/>
<rect x="96" y="32" width="8" height="8" fill="#FCB167"/>
<rect x="64" y="40" width="8" height="8" fill="#FCB167"/>
<rect x="80" y="40" width="8" height="8" fill="#FCB167"/>
<rect x="96" y="40" width="8" height="8" fill="#FCB167"/>
<rect x="64" y="48" width="8" height="8" fill="#FCB167"/>
<rect x="88" y="48" width="8" height="8" fill="#FCB167"/>
<rect x="96" y="48" width="8" height="8" fill="#FCB167"/>
<rect x="64" y="56" width="8" height="8" fill="#FCB167"/>
<rect x="88" y="56" width="8" height="8" fill="#FCB167"/>
<rect x="96" y="56" width="8" height="8" fill="#FCB167"/>
<rect x="64" y="64" width="8" height="8" fill="#FCB167"/>
<rect x="96" y="64" width="8" height="8" fill="#FCB167"/>
<rect x="120" y="16" width="8" height="8" fill="#FCA75B"/>
<rect x="128" y="16" width="8" height="8" fill="#FCA75B"/>
<rect x="136" y="16" width="8" height="8" fill="#FCA75B"/>
<rect x="112" y="24" width="8" height="8" fill="#FCA75B"/>
<rect x="144" y="24" width="8" height="8" fill="#FCA75B"/>
<rect x="112" y="32" width="8" height="8" fill="#FCA75B"/>
<rect x="112" y="40" width="8" height="8" fill="#FCA75B"/>
<rect x="128" y="40" width="8" height="8" fill="#FCA75B"/>
<rect x="136" y="40" width="8" height="8" fill="#FCA75B"/>
<rect x="144" y="40" width="8" height="8" fill="#FCA75B"/>
<rect x="112" y="48" width="8" height="8" fill="#FCA75B"/>
<rect x="144" y="48" width="8" height="8" fill="#FCA75B"/>
<rect x="112" y="56" width="8" height="8" fill="#FCA75B"/>
<rect x="144" y="56" width="8" height="8" fill="#FCA75B"/>
<rect x="120" y="64" width="8" height="8" fill="#FCA75B"/>
<rect x="128" y="64" width="8" height="8" fill="#FCA75B"/>
<rect x="136" y="64" width="8" height="8" fill="#FCA75B"/>
<rect x="160" y="16" width="8" height="8" fill="#FB9E4E"/>
<rect x="160" y="24" width="8" height="8" fill="#FB9E4E"/>
<rect x="160" y="32" width="8" height="8" fill="#FB9E4E"/>
<rect x="160" y="40" width="8" height="8" fill="#FB9E4E"/>
<rect x="160" y="48" width="8" height="8" fill="#FB9E4E"/>
<rect x="160" y="56" width="8" height="8" fill="#FB9E4E"/>
<rect x="160" y="64" width="8" height="8" fill="#FB9E4E"/>
<rect x="168" y="64" width="8" height="8" fill="#FB9E4E"/>
<rect x="176" y="64" width="8" height="8" fill="#FB9E4E"/>
<rect x="184" y="64" width="8" height="8" fill="#FB9E4E"/>
<rect x="192" y="64" width="8" height="8" fill="#FB9E4E"/>
<rect x="208" y="16" width="8" height="8" fill="#FB9442"/>
<rect x="216" y="16" width="8" height="8" fill="#FB9442"/>
<rect x="224" y="16" width="8" height="8" fill="#FB9442"/>
<rect x="232" y="16" width="8" height="8" fill="#FB9442"/>
<rect x="240" y="16" width="8" height="8" fill="#FB9442"/>
<rect x="224" y="24" width="8" height="8" fill="#FB9442"/>
<rect x="224" y="32" width="8" height="8" fill="#FB9442"/>
<rect x="224" y="40" width="8" height="8" fill="#FB9442"/>
<rect x="224" y="48" width="8" height="8" fill="#FB9442"/>
<rect x="224" y="56" width="8" height="8" fill="#FB9442"/>
<rect x="208" y="64" width="8" height="8" fill="#FB9442"/>
<rect x="216" y="64" width="8" height="8" fill="#FB9442"/>
<rect x="224" y="64" width="8" height="8" fill="#FB9442"/>
<rect x="232" y="64" width="8" height="8" fill="#FB9442"/>
<rect x="240" y="64" width="8" height="8" fill="#FB9442"/>
<rect x="264" y="16" width="8" height="8" fill="#FA8B35"/>
<rect x="272" y="16" width="8" height="8" fill="#FA8B35"/>
<rect x="280" y="16" width="8" height="8" fill="#FA8B35"/>
<rect x="256" y="24" width="8" height="8" fill="#FA8B35"/>
<rect x="288" y="24" width="8" height="8" fill="#FA8B35"/>
<rect x="256" y="32" width="8" height="8" fill="#FA8B35"/>
<rect x="264" y="40" width="8" height="8" fill="#FA8B35"/>
<rect x="272" y="40" width="8" height="8" fill="#FA8B35"/>
<rect x="280" y="40" width="8" height="8" fill="#FA8B35"/>
<rect x="288" y="48" width="8" height="8" fill="#FA8B35"/>
<rect x="256" y="56" width="8" height="8" fill="#FA8B35"/>
<rect x="288" y="56" width="8" height="8" fill="#FA8B35"/>
<rect x="264" y="64" width="8" height="8" fill="#FA8B35"/>
<rect x="272" y="64" width="8" height="8" fill="#FA8B35"/>
<rect x="280" y="64" width="8" height="8" fill="#FA8B35"/>
<rect x="304" y="16" width="8" height="8" fill="#FA8129"/>
<rect x="336" y="16" width="8" height="8" fill="#FA8129"/>
<rect x="304" y="24" width="8" height="8" fill="#FA8129"/>
<rect x="336" y="24" width="8" height="8" fill="#FA8129"/>
<rect x="304" y="32" width="8" height="8" fill="#FA8129"/>
<rect x="336" y="32" width="8" height="8" fill="#FA8129"/>
<rect x="304" y="40" width="8" height="8" fill="#FA8129"/>
<rect x="312" y="40" width="8" height="8" fill="#FA8129"/>
<rect x="320" y="40" width="8" height="8" fill="#FA8129"/>
<rect x="328" y="40" width="8" height="8" fill="#FA8129"/>
<rect x="336" y="40" width="8" height="8" fill="#FA8129"/>
<rect x="304" y="48" width="8" height="8" fill="#FA8129"/>
<rect x="336" y="48" width="8" height="8" fill="#FA8129"/>
<rect x="304" y="56" width="8" height="8" fill="#FA8129"/>
<rect x="336" y="56" width="8" height="8" fill="#FA8129"/>
<rect x="304" y="64" width="8" height="8" fill="#FA8129"/>
<rect x="336" y="64" width="8" height="8" fill="#FA8129"/>
<rect x="384" y="16" width="8" height="8" fill="#F9781C"/>
<rect x="392" y="16" width="8" height="8" fill="#F9781C"/>
<rect x="400" y="16" width="8" height="8" fill="#F9781C"/>
<rect x="408" y="16" width="8" height="8" fill="#F9781C"/>
<rect x="416" y="16" width="8" height="8" fill="#F9781C"/>
<rect x="384" y="24" width="8" height="8" fill="#F9781C"/>
<rect x="384" y="32" width="8" height="8" fill="#F9781C"/>
<rect x="384" y="40" width="8" height="8" fill="#F9781C"/>
<rect x="392" y="40" width="8" height="8" fill="#F9781C"/>
<rect x="400" y="40" width="8" height="8" fill="#F9781C"/>
<rect x="408" y="40" width="8" height="8" fill="#F9781C"/>
<rect x="384" y="48" width="8" height="8" fill="#F9781C"/>
<rect x="384" y="56" width="8" height="8" fill="#F9781C"/>
<rect x="384" y="64" width="8" height="8" fill="#F9781C"/>
<rect x="392" y="64" width="8" height="8" fill="#F9781C"/>
<rect x="400" y="64" width="8" height="8" fill="#F9781C"/>
<rect x="408" y="64" width="8" height="8" fill="#F9781C"/>
<rect x="416" y="64" width="8" height="8" fill="#F9781C"/>
<rect x="432" y="16" width="8" height="8" fill="#F57015"/>
<rect x="464" y="16" width="8" height="8" fill="#F57015"/>
<rect x="432" y="24" width="8" height="8" fill="#F57015"/>
<rect x="464" y="24" width="8" height="8" fill="#F57015"/>
<rect x="440" y="32" width="8" height="8" fill="#F57015"/>
<rect x="456" y="32" width="8" height="8" fill="#F57015"/>
<rect x="448" y="40" width="8" height="8" fill="#F57015"/>
<rect x="440" y="48" width="8" height="8" fill="#F57015"/>
<rect x="456" y="48" width="8" height="8" fill="#F57015"/>
<rect x="432" y="56" width="8" height="8" fill="#F57015"/>
<rect x="464" y="56" width="8" height="8" fill="#F57015"/>
<rect x="432" y="64" width="8" height="8" fill="#F57015"/>
<rect x="464" y="64" width="8" height="8" fill="#F57015"/>
<rect x="488" y="16" width="8" height="8" fill="#EE6914"/>
<rect x="496" y="16" width="8" height="8" fill="#EE6914"/>
<rect x="504" y="16" width="8" height="8" fill="#EE6914"/>
<rect x="480" y="24" width="8" height="8" fill="#EE6914"/>
<rect x="512" y="24" width="8" height="8" fill="#EE6914"/>
<rect x="480" y="32" width="8" height="8" fill="#EE6914"/>
<rect x="512" y="32" width="8" height="8" fill="#EE6914"/>
<rect x="480" y="40" width="8" height="8" fill="#EE6914"/>
<rect x="488" y="40" width="8" height="8" fill="#EE6914"/>
<rect x="496" y="40" width="8" height="8" fill="#EE6914"/>
<rect x="504" y="40" width="8" height="8" fill="#EE6914"/>
<rect x="512" y="40" width="8" height="8" fill="#EE6914"/>
<rect x="480" y="48" width="8" height="8" fill="#EE6914"/>
<rect x="512" y="48" width="8" height="8" fill="#EE6914"/>
<rect x="480" y="56" width="8" height="8" fill="#EE6914"/>
<rect x="512" y="56" width="8" height="8" fill="#EE6914"/>
<rect x="480" y="64" width="8" height="8" fill="#EE6914"/>
<rect x="512" y="64" width="8" height="8" fill="#EE6914"/>
<rect x="528" y="16" width="8" height="8" fill="#E76213"/>
<rect x="560" y="16" width="8" height="8" fill="#E76213"/>
<rect x="528" y="24" width="8" height="8" fill="#E76213"/>
<rect x="536" y="24" width="8" height="8" fill="#E76213"/>
<rect x="552" y="24" width="8" height="8" fill="#E76213"/>
<rect x="560" y="24" width="8" height="8" fill="#E76213"/>
<rect x="528" y="32" width="8" height="8" fill="#E76213"/>
<rect x="544" y="32" width="8" height="8" fill="#E76213"/>
<rect x="560" y="32" width="8" height="8" fill="#E76213"/>
<rect x="528" y="40" width="8" height="8" fill="#E76213"/>
<rect x="544" y="40" width="8" height="8" fill="#E76213"/>
<rect x="560" y="40" width="8" height="8" fill="#E76213"/>
<rect x="528" y="48" width="8" height="8" fill="#E76213"/>
<rect x="560" y="48" width="8" height="8" fill="#E76213"/>
<rect x="528" y="56" width="8" height="8" fill="#E76213"/>
<rect x="560" y="56" width="8" height="8" fill="#E76213"/>
<rect x="528" y="64" width="8" height="8" fill="#E76213"/>
<rect x="560" y="64" width="8" height="8" fill="#E76213"/>
<rect x="616" y="16" width="8" height="8" fill="#DF5C11"/>
<rect x="624" y="16" width="8" height="8" fill="#DF5C11"/>
<rect x="632" y="16" width="8" height="8" fill="#DF5C11"/>
<rect x="608" y="24" width="8" height="8" fill="#DF5C11"/>
<rect x="640" y="24" width="8" height="8" fill="#DF5C11"/>
<rect x="608" y="32" width="8" height="8" fill="#DF5C11"/>
<rect x="608" y="40" width="8" height="8" fill="#DF5C11"/>
<rect x="608" y="48" width="8" height="8" fill="#DF5C11"/>
<rect x="608" y="56" width="8" height="8" fill="#DF5C11"/>
<rect x="640" y="56" width="8" height="8" fill="#DF5C11"/>
<rect x="616" y="64" width="8" height="8" fill="#DF5C11"/>
<rect x="624" y="64" width="8" height="8" fill="#DF5C11"/>
<rect x="632" y="64" width="8" height="8" fill="#DF5C11"/>
<rect x="664" y="16" width="8" height="8" fill="#D85510"/>
<rect x="672" y="16" width="8" height="8" fill="#D85510"/>
<rect x="680" y="16" width="8" height="8" fill="#D85510"/>
<rect x="656" y="24" width="8" height="8" fill="#D85510"/>
<rect x="688" y="24" width="8" height="8" fill="#D85510"/>
<rect x="656" y="32" width="8" height="8" fill="#D85510"/>
<rect x="688" y="32" width="8" height="8" fill="#D85510"/>
<rect x="656" y="40" width="8" height="8" fill="#D85510"/>
<rect x="688" y="40" width="8" height="8" fill="#D85510"/>
<rect x="656" y="48" width="8" height="8" fill="#D85510"/>
<rect x="688" y="48" width="8" height="8" fill="#D85510"/>
<rect x="656" y="56" width="8" height="8" fill="#D85510"/>
<rect x="688" y="56" width="8" height="8" fill="#D85510"/>
<rect x="664" y="64" width="8" height="8" fill="#D85510"/>
<rect x="672" y="64" width="8" height="8" fill="#D85510"/>
<rect x="680" y="64" width="8" height="8" fill="#D85510"/>
<rect x="712" y="16" width="8" height="8" fill="#D14E0F"/>
<rect x="720" y="16" width="8" height="8" fill="#D14E0F"/>
<rect x="728" y="16" width="8" height="8" fill="#D14E0F"/>
<rect x="704" y="24" width="8" height="8" fill="#D14E0F"/>
<rect x="736" y="24" width="8" height="8" fill="#D14E0F"/>
<rect x="704" y="32" width="8" height="8" fill="#D14E0F"/>
<rect x="736" y="32" width="8" height="8" fill="#D14E0F"/>
<rect x="704" y="40" width="8" height="8" fill="#D14E0F"/>
<rect x="712" y="40" width="8" height="8" fill="#D14E0F"/>
<rect x="720" y="40" width="8" height="8" fill="#D14E0F"/>
<rect x="728" y="40" width="8" height="8" fill="#D14E0F"/>
<rect x="736" y="40" width="8" height="8" fill="#D14E0F"/>
<rect x="704" y="48" width="8" height="8" fill="#D14E0F"/>
<rect x="736" y="48" width="8" height="8" fill="#D14E0F"/>
<rect x="704" y="56" width="8" height="8" fill="#D14E0F"/>
<rect x="736" y="56" width="8" height="8" fill="#D14E0F"/>
<rect x="704" y="64" width="8" height="8" fill="#D14E0F"/>
<rect x="736" y="64" width="8" height="8" fill="#D14E0F"/>
<rect x="760" y="16" width="8" height="8" fill="#C9480D"/>
<rect x="768" y="16" width="8" height="8" fill="#C9480D"/>
<rect x="776" y="16" width="8" height="8" fill="#C9480D"/>
<rect x="752" y="24" width="8" height="8" fill="#C9480D"/>
<rect x="784" y="24" width="8" height="8" fill="#C9480D"/>
<rect x="752" y="32" width="8" height="8" fill="#C9480D"/>
<rect x="752" y="40" width="8" height="8" fill="#C9480D"/>
<rect x="752" y="48" width="8" height="8" fill="#C9480D"/>
<rect x="752" y="56" width="8" height="8" fill="#C9480D"/>
<rect x="784" y="56" width="8" height="8" fill="#C9480D"/>
<rect x="760" y="64" width="8" height="8" fill="#C9480D"/>
<rect x="768" y="64" width="8" height="8" fill="#C9480D"/>
<rect x="776" y="64" width="8" height="8" fill="#C9480D"/>
<rect x="800" y="16" width="8" height="8" fill="#C2410C"/>
<rect x="832" y="16" width="8" height="8" fill="#C2410C"/>
<rect x="800" y="24" width="8" height="8" fill="#C2410C"/>
<rect x="832" y="24" width="8" height="8" fill="#C2410C"/>
<rect x="800" y="32" width="8" height="8" fill="#C2410C"/>
<rect x="832" y="32" width="8" height="8" fill="#C2410C"/>
<rect x="800" y="40" width="8" height="8" fill="#C2410C"/>
<rect x="808" y="40" width="8" height="8" fill="#C2410C"/>
<rect x="816" y="40" width="8" height="8" fill="#C2410C"/>
<rect x="824" y="40" width="8" height="8" fill="#C2410C"/>
<rect x="832" y="40" width="8" height="8" fill="#C2410C"/>
<rect x="800" y="48" width="8" height="8" fill="#C2410C"/>
<rect x="832" y="48" width="8" height="8" fill="#C2410C"/>
<rect x="800" y="56" width="8" height="8" fill="#C2410C"/>
<rect x="832" y="56" width="8" height="8" fill="#C2410C"/>
<rect x="800" y="64" width="8" height="8" fill="#C2410C"/>
<rect x="832" y="64" width="8" height="8" fill="#C2410C"/>
<rect x="44" y="88" width="40" height="32" fill="#FDBA74"/>
<rect x="100" y="88" width="40" height="32" fill="#FCAF66"/>
<rect x="156" y="88" width="40" height="32" fill="#FCA457"/>
<rect x="212" y="88" width="40" height="32" fill="#FB9949"/>
<rect x="268" y="88" width="40" height="32" fill="#FB8E3A"/>
<rect x="324" y="88" width="40" height="32" fill="#FA832C"/>
<rect x="380" y="88" width="40" height="32" fill="#F9781D"/>
<rect x="436" y="88" width="40" height="32" fill="#F56F15"/>
<rect x="492" y="88" width="40" height="32" fill="#EC6714"/>
<rect x="549" y="89" width="38" height="30" fill="none" stroke="#F97316" stroke-width="2"/>
<rect x="605" y="89" width="38" height="30" fill="none" stroke="#F97316" stroke-width="2"/>
<rect x="661" y="89" width="38" height="30" fill="none" stroke="#F97316" stroke-width="2"/>
<rect x="717" y="89" width="38" height="30" fill="none" stroke="#F97316" stroke-width="2"/>
<rect x="773" y="89" width="38" height="30" fill="none" stroke="#F97316" stroke-width="2"/>
<text x="28" y="112" text-anchor="end" font-family="ui-monospace,SFMono-Regular,Menlo,Consolas,monospace" font-size="16" fill="#9CA3AF">B1</text>
<text x="828" y="112" font-family="ui-monospace,SFMono-Regular,Menlo,Consolas,monospace" font-size="16" fill="#9CA3AF">C2</text>
<text x="428" y="152" text-anchor="middle" font-family="ui-monospace,SFMono-Regular,Menlo,Consolas,monospace" font-size="14" fill="#9CA3AF">Level up your English inside Claude Code — IELTS &#183; TOEFL iBT &#183; CEFR B1&#8211;C2</text>
</svg>
